<?xml version="1.0" encoding="utf-8"?>
<!-- Generator: Adobe Illustrator 24.0.3, SVG Export Plug-In . SVG Version: 6.00 Build 0)  -->
<!DOCTYPE svg PUBLIC "-//W3C//DTD SVG 1.1//EN" "http://www.w3.org/Graphics/SVG/1.1/DTD/svg11.dtd" [
	<!ENTITY ns_extend "http://ns.adobe.com/Extensibility/1.0/">
	<!ENTITY ns_ai "http://ns.adobe.com/AdobeIllustrator/10.0/">
	<!ENTITY ns_graphs "http://ns.adobe.com/Graphs/1.0/">
	<!ENTITY ns_vars "http://ns.adobe.com/Variables/1.0/">
	<!ENTITY ns_imrep "http://ns.adobe.com/ImageReplacement/1.0/">
	<!ENTITY ns_sfw "http://ns.adobe.com/SaveForWeb/1.0/">
	<!ENTITY ns_custom "http://ns.adobe.com/GenericCustomNamespace/1.0/">
	<!ENTITY ns_adobe_xpath "http://ns.adobe.com/XPath/1.0/">
]>
<svg version="1.1" id="Layer_1" xmlns:x="&ns_extend;" xmlns:i="&ns_ai;" xmlns:graph="&ns_graphs;"
	 xmlns="http://www.w3.org/2000/svg" xmlns:xlink="http://www.w3.org/1999/xlink" x="0px" y="0px" viewBox="0 0 120.2 109.2"
	 style="enable-background:new 0 0 120.2 109.2;" xml:space="preserve">
<style type="text/css">
	.st0{fill-rule:evenodd;clip-rule:evenodd;fill:#FFFFFF;stroke:#000000;stroke-width:6;stroke-linejoin:round;}
	
		.st1{fill-rule:evenodd;clip-rule:evenodd;fill:#FFFFFF;stroke:#000000;stroke-width:6;stroke-linecap:round;stroke-linejoin:round;}
	.st2{fill-rule:evenodd;clip-rule:evenodd;fill:#FFFFFF;stroke:#000000;stroke-width:4;stroke-linecap:round;}
</style>
<metadata>
	<sfw  xmlns="&ns_sfw;">
		<slices></slices>
		<sliceSourceBounds  bottomLeftOrigin="true" height="109.2" width="120.2" x="5" y="13.4"></sliceSourceBounds>
	</sfw>
</metadata>
<g>
	<g>
		<path class="st0" d="M11,42.6h80c0,24-3.2,40-24,56H35C15.3,84.5,11,66.6,11,42.6z"/>
		<path class="st0" d="M3,90.6h96.3c-8.3,8-8.3,12.7-28.9,15.6H31.9C11,103.8,11,98.6,3,90.6L3,90.6z"/>
	</g>
	<g>
		<path class="st1" d="M116.8,68.2c-1.8,9.5-9.1,15.2-16.2,12.7c-7.1-2.4-11.4-12.1-9.6-21.5s9.1-15.2,16.2-12.7
			C114.3,49.1,118.6,58.7,116.8,68.2z"/>
		<g>
			<path class="st2" d="M42.6,2c15.3,15.9-14.1,17,0,33.2"/>
			<path class="st2" d="M52.5,2.5c15.3,15.9-14.1,17,0,33.2"/>
			<path class="st2" d="M63.5,2.5c15.3,15.9-14.1,17,0,33.2"/>
		</g>
	</g>
</g>
</svg>
